# xmcd
#
# Track frame offsets:
#	150
#	52533
#	101634
#	120264
#	150205
#	170769
#	199984
#	223258
#	261895
#
# Disc length: 3989 seconds
#
# Revision: 0
# Processed by: cddbd v1.5.2PL0 Copyright (c) Steve Scherf et al.
# Submitted via: audiograbber 1.83.01
#
DISCID=730f9309
DTITLE=Ludwig van Beethoven - Symphonies No. 2 - Overtures [Beethoven Orchester
DTITLE=Bonn - Stefan Blunier] [MDG SACD]
DYEAR=2016
DGENRE=Classical
TTITLE0=Symphony No. 2 op. 36 D major - Adagio molto - Allegro con brio
TTITLE1=Symphony No. 2 op. 36 D major - Larghetto
TTITLE2=Symphony No. 2 op. 36 D major - Scherzo. Allegro
TTITLE3=Symphony No. 2 op. 36 D major - Allegro molto
TTITLE4=Die Ruinen von Athen op. 113 - Overture
TTITLE5=Zur Namensfeier op. 115 - Overture
TTITLE6=Die Geschöpfe des Prometheus op. 43 - Overture
TTITLE7=Coriolan op. 62 - Overture
TTITLE8=Egmont op. 84 - Overture
EXTD=
EXTT0=
EXTT1=
EXTT2=
EXTT3=
EXTT4=
EXTT5=
EXTT6=
EXTT7=
EXTT8=
PLAYORDER=
